<svg width="1440" height="900" viewBox="0 0 1440 900" fill="none" xmlns="http://www.w3.org/2000/svg">
<g clip-path="url(#clip0_1_45154)">
<path d="M0 136.484V0H132.75C132.75 75.3389 73.278 136.484 0 136.484Z" fill="#F48276"/>
<path d="M132.75 899.486H0V694.76C0 657.091 29.736 626.519 66.375 626.519C103.014 626.519 132.75 657.091 132.75 694.76V899.486Z" fill="#888EF6"/>
<path d="M66.3757 742.584C92.1242 742.584 112.997 721.124 112.997 694.651C112.997 668.179 92.1242 646.718 66.3757 646.718C40.6272 646.718 19.7539 668.179 19.7539 694.651C19.7539 721.124 40.6272 742.584 66.3757 742.584Z" fill="#535CEE"/>
<path d="M73.5747 825.1C77.758 825.1 81.1493 821.614 81.1493 817.313C81.1493 813.012 77.758 809.525 73.5747 809.525C69.3913 809.525 66 813.012 66 817.313C66 821.614 69.3913 825.1 73.5747 825.1Z" fill="#555DEF"/>
<path d="M119.538 825.1C123.721 825.1 127.112 821.614 127.112 817.313C127.112 813.012 123.721 809.525 119.538 809.525C115.354 809.525 111.963 813.012 111.963 817.313C111.963 821.614 115.354 825.1 119.538 825.1Z" fill="#555DEF"/>
<path d="M165.5 825.1C169.684 825.1 173.075 821.614 173.075 817.313C173.075 813.012 169.684 809.525 165.5 809.525C161.317 809.525 157.926 813.012 157.926 817.313C157.926 821.614 161.317 825.1 165.5 825.1Z" fill="#555DEF"/>
<path d="M211.463 825.1C215.647 825.1 219.038 821.614 219.038 817.313C219.038 813.012 215.647 809.525 211.463 809.525C207.28 809.525 203.889 813.012 203.889 817.313C203.889 821.614 207.28 825.1 211.463 825.1Z" fill="#555DEF"/>
<path d="M257.426 825.1C261.61 825.1 265.001 821.614 265.001 817.313C265.001 813.012 261.61 809.525 257.426 809.525C253.243 809.525 249.852 813.012 249.852 817.313C249.852 821.614 253.243 825.1 257.426 825.1Z" fill="#555DEF"/>
<path d="M1307.38 68.2418C1270.74 68.2418 1241 37.6695 1241 0H1307.38V68.2418Z" fill="#555DEF"/>
<path d="M1374.71 116.175C1400.51 116.175 1421.33 94.6654 1421.33 68.2422H1327.98C1328.08 94.7746 1348.9 116.175 1374.71 116.175Z" fill="#F48276"/>
<path d="M1307.38 0V68.2418H1328.08C1328.08 41.7094 1349.01 20.3088 1374.71 20.3088C1400.51 20.3088 1421.33 41.8186 1421.33 68.2418H1440.12V0H1307.38Z" fill="#555DEF"/>
<path d="M1374.71 20.3086C1348.9 20.3086 1328.08 41.8184 1328.08 68.2416H1421.43C1421.43 41.7092 1400.51 20.3086 1374.71 20.3086Z" fill="#F16253"/>
<path d="M1440 763.259H1307V900H1440V763.259Z" fill="#555DEF"/>
<path d="M1327.11 879.324V783.934H1419.89L1327.11 879.324Z" fill="#F48276"/>
<path d="M524.456 160C519.816 160 515.282 161.365 511.424 163.921C507.567 166.478 504.561 170.111 502.785 174.363C501.01 178.614 500.546 183.292 501.451 187.806C502.356 192.319 504.59 196.465 507.87 199.719C511.15 202.973 515.33 205.189 519.88 206.086C524.43 206.984 529.146 206.523 533.432 204.762C537.718 203.001 541.381 200.019 543.958 196.193C546.535 192.367 547.911 187.868 547.911 183.267C547.911 180.211 547.304 177.186 546.126 174.363C544.947 171.54 543.219 168.975 541.041 166.815C538.863 164.654 536.277 162.94 533.432 161.771C530.586 160.602 527.536 160 524.456 160ZM540.721 183.884H531.531V183.907L539.174 191.488L535.518 195.113L529.02 188.667L529.002 188.683V199.403H523.838V190.287H523.813L516.172 197.867L512.516 194.242L519.013 187.799C519.009 187.792 519.004 187.786 518.998 187.781H508.19V182.654H517.378C517.378 182.654 517.378 182.64 517.378 182.631L509.733 175.05L513.386 171.425L519.886 177.871L519.902 177.855V167.134H525.071V176.251H525.092L532.737 168.671L536.391 172.296L529.893 178.739L529.907 178.757H540.717L540.721 183.884Z" fill="#F16253"/>
<path d="M529.912 178.39L529.898 178.375C528.693 176.948 526.967 176.053 525.099 175.885H525.076C524.871 175.867 524.666 175.855 524.456 175.855C522.793 175.854 521.183 176.433 519.907 177.491L519.891 177.504C518.453 178.7 517.551 180.411 517.381 182.265V182.287C517.363 182.491 517.352 182.695 517.352 182.903C517.35 184.552 517.934 186.149 519 187.415L519.014 187.431C520.219 188.857 521.944 189.752 523.813 189.921H523.836C524.041 189.939 524.246 189.95 524.456 189.95C526.119 189.951 527.729 189.372 529.005 188.314L529.021 188.301C530.459 187.105 531.361 185.394 531.531 183.54V183.518C531.549 183.314 531.56 183.111 531.56 182.903C531.562 181.253 530.978 179.656 529.912 178.39Z" fill="#F16253"/>
<path d="M559.91 160L559.91 207" stroke="#696F79" stroke-opacity="0.24"/>
<path d="M591.216 180.817L586.956 179.999C585.277 179.684 584.06 179.432 583.263 179.201C582.486 178.991 581.983 178.76 581.773 178.53C581.563 178.299 581.458 177.984 581.458 177.585C581.458 176.851 581.815 176.347 582.549 176.095C583.263 175.844 584.543 175.718 586.369 175.718C590.104 175.718 593.566 176.221 596.714 177.229L596.882 177.061L597.008 169.989C595.644 169.569 593.944 169.191 591.887 168.898C589.831 168.604 587.481 168.457 584.774 168.457C580.283 168.457 577.03 169.087 574.974 170.325C572.938 171.605 571.91 173.934 571.91 177.375C571.91 179.915 572.561 181.803 573.862 183.083C575.163 184.342 577.303 185.266 580.262 185.853L584.879 186.735C586.327 187.007 587.292 187.217 587.774 187.385C588.257 187.532 588.509 187.952 588.509 188.623C588.509 189.085 588.362 189.463 588.047 189.735C587.733 190.008 587.124 190.197 586.243 190.323C585.34 190.449 583.997 190.491 582.214 190.491C578.499 190.491 575.142 190.071 572.099 189.211L571.91 189.295V196.492C573.631 196.849 575.561 197.143 577.723 197.395C579.884 197.647 582.256 197.772 584.837 197.772C588.236 197.772 590.88 197.5 592.811 196.954C594.741 196.408 596.105 195.485 596.924 194.184C597.742 192.883 598.162 191.12 598.162 188.896C598.162 186.357 597.595 184.51 596.462 183.335C595.329 182.16 593.587 181.321 591.216 180.817Z" fill="black"/>
<path d="M621.433 184.972C621.391 186.525 621.055 187.637 620.405 188.267C619.754 188.917 618.516 189.232 616.69 189.232C614.781 189.232 613.522 188.875 612.892 188.141C612.263 187.427 611.948 186.189 611.948 184.426L611.885 168.751H602.547V186.693C602.547 190.239 603.302 192.967 604.834 194.877C606.345 196.786 608.905 197.752 612.494 197.752C614.718 197.752 616.607 197.416 618.159 196.723C619.712 196.052 620.761 195.129 621.265 193.995H621.433L621.895 197.206H630.792V168.772H621.433V184.972Z" fill="black"/>
<path d="M690.725 168.771H680.673C679.498 171.898 678.47 175.004 677.547 178.131C676.623 181.257 675.889 184.426 675.301 187.658H675.175C674.588 184.384 673.811 181.194 672.867 178.068C671.902 174.941 670.895 171.856 669.803 168.771H659.332V168.897L670.622 197.31L666.11 208.013V208.139H675.7L690.725 168.96V168.771Z" fill="black"/>
<path d="M721.993 197.185L711.102 168.709H707.366H701.05H697.315L686.424 197.185H696.496L704.219 176.977L711.941 197.185H721.993Z" fill="black"/>
<path d="M647.811 169.905C646.489 170.87 645.649 172.423 645.293 174.606H645.125L644.369 168.751H636.752V197.227H646.111L646.237 186.944C646.237 184.3 646.552 182.286 647.202 180.943C647.853 179.6 648.734 178.697 649.888 178.215C650.979 177.774 652.218 177.543 653.561 177.522H658.408V168.457H653.561C651.021 168.499 649.112 168.982 647.811 169.905Z" fill="black"/>
<path d="M726.398 173.535C722.348 173.535 719.074 170.261 719.074 166.211C719.074 163.588 720.459 161.301 722.516 160C718.99 160.797 716.367 163.945 716.367 167.701C716.367 172.066 719.893 175.592 724.257 175.592C727.048 175.592 729.504 174.144 730.909 171.961C729.671 172.947 728.119 173.535 726.398 173.535Z" fill="#F16522"/>
</g>
<defs>
<clipPath id="clip0_1_45154">
<rect width="1440" height="900" fill="white"/>
</clipPath>
</defs>
</svg>
