<svg width="95" height="20" viewBox="0 0 95 20" fill="none" xmlns="http://www.w3.org/2000/svg">
<path d="M9.67943 0C7.76541 0 5.89437 0.563004 4.30292 1.61782C2.71146 2.67263 1.47108 4.17187 0.738611 5.92596C0.00614514 7.68005 -0.1855 9.61021 0.187908 11.4723C0.561315 13.3345 1.48301 15.0449 2.83642 16.3875C4.18984 17.73 5.9142 18.6443 7.79145 19.0147C9.6687 19.3851 11.6145 19.195 13.3828 18.4684C15.1512 17.7418 16.6626 16.5114 17.726 14.9328C18.7893 13.3541 19.3569 11.4982 19.3569 9.59956C19.3569 8.33893 19.1066 7.09064 18.6203 5.92596C18.1339 4.76129 17.4211 3.70305 16.5224 2.81164C15.6238 1.92024 14.557 1.21314 13.3828 0.730721C12.2087 0.248298 10.9503 0 9.67943 0ZM16.3904 9.85432H12.5985V9.86355L15.7521 12.9917L14.2437 14.487L11.5628 11.8278L11.5554 11.8342V16.2574H9.42447V12.496H9.41423L6.26161 15.6233L4.75322 14.128L7.43407 11.4696C7.43242 11.4668 7.4302 11.4642 7.42756 11.4622H2.96848V9.34665H6.75944C6.75944 9.34665 6.75944 9.34111 6.75944 9.33742L3.60496 6.20925L5.11241 4.71394L7.79419 7.3732L7.8007 7.36674V2.94356H9.93347V6.70492H9.94184L13.0963 3.57768L14.6038 5.073L11.9229 7.73134L11.9285 7.73872H16.3885L16.3904 9.85432Z" fill="#F16253"/>
<path d="M11.9302 7.58779L11.9246 7.58133C11.4273 6.99279 10.7154 6.62344 9.94441 6.55399H9.9351C9.85042 6.54661 9.76575 6.54199 9.67921 6.54199C8.99313 6.54135 8.3287 6.78021 7.80234 7.21673L7.79582 7.22227C7.2025 7.71554 6.83015 8.42172 6.76015 9.18649V9.19572C6.7527 9.27971 6.74805 9.36371 6.74805 9.44955C6.7474 10.1301 6.9882 10.7892 7.42826 11.3113L7.43385 11.3178C7.93112 11.9063 8.64303 12.2757 9.41401 12.3451H9.42331C9.50799 12.3525 9.59267 12.3571 9.67921 12.3571C10.3653 12.3578 11.0297 12.1189 11.5561 11.6824L11.5626 11.6768C12.1559 11.1836 12.5283 10.4774 12.5983 9.71262V9.70339C12.6057 9.61939 12.6104 9.53539 12.6104 9.44955C12.611 8.76899 12.3702 8.10992 11.9302 7.58779Z" fill="#F16253"/>
<path d="M24.3086 0L24.3086 19.3916" stroke="#696F79" stroke-opacity="0.24" stroke-width="0.412588"/>
<path d="M37.2251 8.58881L35.4675 8.25115C34.7749 8.12128 34.2727 8.01738 33.9437 7.92214C33.6234 7.83557 33.4156 7.74033 33.329 7.64509C33.2424 7.54985 33.1991 7.41998 33.1991 7.25548C33.1991 6.95245 33.3463 6.74466 33.6494 6.64076C33.9437 6.53687 34.4719 6.48492 35.2251 6.48492C36.7662 6.48492 38.1948 6.69271 39.4935 7.10829L39.5628 7.03903L39.6147 4.12129C39.0519 3.94813 38.3506 3.79229 37.5022 3.67108C36.6537 3.54986 35.684 3.48926 34.5671 3.48926C32.7143 3.48926 31.3723 3.749 30.5238 4.25982C29.684 4.78795 29.2598 5.74899 29.2598 7.1689C29.2598 8.21652 29.5282 8.99573 30.065 9.52387C30.6018 10.0434 31.4849 10.4243 32.7056 10.6667L34.6104 11.0304C35.2078 11.1429 35.6061 11.2295 35.8052 11.2988C36.0043 11.3594 36.1082 11.5325 36.1082 11.8096C36.1082 12.0001 36.0476 12.1559 35.9178 12.2685C35.7879 12.381 35.5368 12.4589 35.1732 12.5109C34.8009 12.5628 34.2468 12.5801 33.5108 12.5801C31.9784 12.5801 30.5931 12.407 29.3377 12.052L29.2598 12.0866V15.0563C29.9697 15.2035 30.7663 15.3247 31.658 15.4286C32.5498 15.5325 33.5282 15.5845 34.5931 15.5845C35.9957 15.5845 37.0866 15.4719 37.8831 15.2468C38.6797 15.0217 39.2424 14.6407 39.5801 14.1039C39.9177 13.5671 40.0909 12.8399 40.0909 11.9221C40.0909 10.8745 39.8571 10.1126 39.3896 9.62777C38.9221 9.14292 38.2035 8.7966 37.2251 8.58881Z" fill="black"/>
<path d="M49.6926 10.303C49.6753 10.9437 49.5367 11.4025 49.2683 11.6623C48.9999 11.9307 48.4891 12.0605 47.7359 12.0605C46.948 12.0605 46.4285 11.9134 46.1688 11.6103C45.909 11.316 45.7792 10.8051 45.7792 10.0779L45.7532 3.61035H41.9004V11.0129C41.9004 12.4761 42.2121 13.6017 42.8441 14.3895C43.4675 15.1774 44.5238 15.5757 46.0043 15.5757C46.922 15.5757 47.7012 15.4372 48.3419 15.1514C48.9826 14.8744 49.4155 14.4934 49.6233 14.0259H49.6926L49.883 15.3506H53.554V3.61901H49.6926V10.303Z" fill="black"/>
<path d="M78.2805 3.61914H74.1333C73.6484 4.90918 73.2242 6.19056 72.8433 7.4806C72.4623 8.77064 72.1593 10.078 71.9168 11.4113H71.8649C71.6225 10.0607 71.3021 8.74467 70.9125 7.45463C70.5143 6.16459 70.0987 4.89186 69.6485 3.61914H65.3281V3.67109L69.9861 15.394L68.1247 19.8096V19.8615H72.0813L78.2805 3.69706V3.61914Z" fill="black"/>
<path d="M91.1811 15.3417L86.6876 3.59277H85.1465H82.5405H80.9993L76.5059 15.3417H80.6617L83.8478 7.00402L87.034 15.3417H91.1811Z" fill="black"/>
<path d="M60.5764 4.08666C60.031 4.48493 59.6847 5.12562 59.5375 6.02605H59.4682L59.1565 3.61047H56.0137V15.3594H59.8751L59.9271 11.1169C59.9271 10.026 60.0569 9.19487 60.3253 8.64076C60.5937 8.08665 60.9574 7.71435 61.4336 7.51522C61.8838 7.3334 62.3946 7.23816 62.9487 7.22951H64.9487V3.48926H62.9487C61.9011 3.50657 61.1132 3.70571 60.5764 4.08666Z" fill="black"/>
<path d="M92.9979 5.5844C91.3269 5.5844 89.9763 4.23375 89.9763 2.56276C89.9763 1.48052 90.5477 0.536795 91.3962 0C89.9416 0.329003 88.8594 1.6277 88.8594 3.17748C88.8594 4.97834 90.3139 6.43288 92.1148 6.43288C93.2663 6.43288 94.2793 5.83548 94.8594 4.93505C94.3485 5.34198 93.7078 5.5844 92.9979 5.5844Z" fill="#F16522"/>
</svg>
