<svg width="32" height="32" viewBox="0 0 32 32" fill="none" xmlns="http://www.w3.org/2000/svg">
<rect width="32" height="32" rx="16" fill="#F6BB42"/>
<path d="M15.972 21.18C15.352 21.18 14.792 21.074 14.292 20.862C13.796 20.646 13.386 20.34 13.062 19.944C12.742 19.544 12.534 19.07 12.438 18.522L13.746 18.324C13.878 18.852 14.154 19.264 14.574 19.56C14.994 19.852 15.484 19.998 16.044 19.998C16.392 19.998 16.712 19.944 17.004 19.836C17.296 19.724 17.53 19.566 17.706 19.362C17.886 19.154 17.976 18.906 17.976 18.618C17.976 18.462 17.948 18.324 17.892 18.204C17.84 18.084 17.766 17.98 17.67 17.892C17.578 17.8 17.464 17.722 17.328 17.658C17.196 17.59 17.05 17.532 16.89 17.484L14.676 16.83C14.46 16.766 14.24 16.684 14.016 16.584C13.792 16.48 13.586 16.346 13.398 16.182C13.214 16.014 13.064 15.808 12.948 15.564C12.832 15.316 12.774 15.016 12.774 14.664C12.774 14.132 12.91 13.682 13.182 13.314C13.458 12.942 13.83 12.662 14.298 12.474C14.766 12.282 15.29 12.186 15.87 12.186C16.454 12.194 16.976 12.298 17.436 12.498C17.9 12.698 18.284 12.986 18.588 13.362C18.896 13.734 19.108 14.186 19.224 14.718L17.88 14.946C17.82 14.622 17.692 14.344 17.496 14.112C17.3 13.876 17.06 13.696 16.776 13.572C16.492 13.444 16.184 13.378 15.852 13.374C15.532 13.366 15.238 13.414 14.97 13.518C14.706 13.622 14.494 13.768 14.334 13.956C14.178 14.144 14.1 14.36 14.1 14.604C14.1 14.844 14.17 15.038 14.31 15.186C14.45 15.334 14.622 15.452 14.826 15.54C15.034 15.624 15.24 15.694 15.444 15.75L17.04 16.2C17.24 16.256 17.466 16.332 17.718 16.428C17.974 16.52 18.22 16.65 18.456 16.818C18.696 16.986 18.894 17.21 19.05 17.49C19.206 17.766 19.284 18.114 19.284 18.534C19.284 18.97 19.196 19.354 19.02 19.686C18.844 20.014 18.602 20.29 18.294 20.514C17.99 20.734 17.638 20.9 17.238 21.012C16.838 21.124 16.416 21.18 15.972 21.18Z" fill="white"/>
</svg>
