<svg width="16" height="16" viewBox="0 0 16 16" fill="none" xmlns="http://www.w3.org/2000/svg">
<path fill-rule="evenodd" clip-rule="evenodd" d="M10.7722 5.48857C10.7722 7.05503 9.52338 8.31107 7.96598 8.31107C6.40858 8.31107 5.15979 7.05503 5.15979 5.48857C5.15979 3.92152 6.40858 2.66667 7.96598 2.66667C9.52338 2.66667 10.7722 3.92152 10.7722 5.48857ZM7.96598 13.3333C5.67852 13.3333 3.72535 12.9707 3.72535 11.5201C3.72535 10.0689 5.66599 9.69309 7.96598 9.69309C10.2534 9.69309 12.2066 10.0557 12.2066 11.5069C12.2066 12.9575 10.266 13.3333 7.96598 13.3333ZM11.9714 5.53949C11.9714 6.33803 11.7332 7.08193 11.3153 7.70034C11.2723 7.76399 11.3105 7.84984 11.3864 7.86305C11.4908 7.88107 11.5989 7.89127 11.7087 7.89427C12.8041 7.92309 13.7872 7.21402 14.0588 6.1465C14.4612 4.56083 13.2798 3.13727 11.7756 3.13727C11.612 3.13727 11.4556 3.15468 11.3034 3.1859C11.2825 3.1907 11.2604 3.20031 11.2485 3.21892C11.2341 3.24174 11.2449 3.27236 11.2592 3.29217C11.7111 3.9292 11.9714 4.70613 11.9714 5.53949ZM13.7854 9.00838C14.5215 9.15308 15.0056 9.44848 15.2061 9.87777C15.3757 10.2302 15.3757 10.6391 15.2061 10.9909C14.8993 11.6568 13.9102 11.8705 13.5258 11.9257C13.4464 11.9378 13.3825 11.8687 13.3909 11.7889C13.5873 9.94381 12.0251 9.06903 11.621 8.86789C11.6036 8.85888 11.6001 8.84507 11.6019 8.83667C11.603 8.83066 11.6102 8.82106 11.6233 8.81926C12.4979 8.80305 13.438 8.92313 13.7854 9.00838ZM4.29137 7.89421C4.4012 7.89121 4.50865 7.88161 4.61371 7.86299C4.68952 7.84978 4.72773 7.76393 4.68475 7.70028C4.26689 7.08187 4.02871 6.33797 4.02871 5.53943C4.02871 4.70607 4.28898 3.92914 4.74086 3.29211C4.75518 3.2723 4.76533 3.24168 4.7516 3.21886C4.73966 3.20085 4.71698 3.19064 4.69668 3.18584C4.54387 3.15462 4.38747 3.13721 4.22391 3.13721C2.71964 3.13721 1.5383 4.56077 1.94123 6.14644C2.21284 7.21396 3.19599 7.92303 4.29137 7.89421ZM4.39792 8.83631C4.39971 8.84531 4.39613 8.85852 4.37941 8.86813C3.97469 9.06927 2.41251 9.94405 2.6089 11.7885C2.61726 11.869 2.55399 11.9374 2.47459 11.926C2.09017 11.8708 1.10105 11.657 0.794221 10.9912C0.624094 10.6387 0.624094 10.2304 0.794221 9.87801C0.994791 9.44872 1.47831 9.15332 2.21433 9.00802C2.56234 8.92337 3.50192 8.80329 4.37703 8.8195C4.39016 8.8213 4.39672 8.8309 4.39792 8.83631Z" fill="white"/>
</svg>
