<svg width="14" height="11" viewBox="0 0 14 11" fill="none" xmlns="http://www.w3.org/2000/svg">
<path d="M2.36177 4.05318C1.12059 3.55671 0.5 3.30847 0.5 3C0.5 2.69153 1.12059 2.4433 2.36177 1.94683L4.11706 1.24471C5.35824 0.748236 5.97883 0.5 6.75 0.5C7.52118 0.5 8.14177 0.748236 9.38295 1.24471L11.1382 1.94683C12.3794 2.4433 13 2.69153 13 3C13 3.30847 12.3794 3.55671 11.1382 4.05318L9.38295 4.7553C8.14177 5.25177 7.52118 5.5 6.75 5.5C5.97883 5.5 5.35824 5.25177 4.11706 4.7553L2.36177 4.05318Z" stroke="#696F79"/>
<path d="M13 5.5C13 5.5 12.3794 6.0567 11.1382 6.55318L9.38295 7.25529C8.14177 7.75177 7.52118 8 6.75 8C5.97883 8 5.35824 7.75177 4.11706 7.25529L2.36177 6.55318C1.12059 6.0567 0.5 5.5 0.5 5.5" stroke="#696F79" stroke-linecap="round"/>
<path d="M13 8C13 8 12.3794 8.5567 11.1382 9.05318L9.38295 9.75529C8.14177 10.2518 7.52118 10.5 6.75 10.5C5.97883 10.5 5.35824 10.2518 4.11706 9.75529L2.36177 9.05318C1.12059 8.5567 0.5 8 0.5 8" stroke="#696F79" stroke-linecap="round"/>
</svg>
