<svg width="95" height="20" viewBox="0 0 95 20" fill="none" xmlns="http://www.w3.org/2000/svg">
<path d="M9.67858 0C7.76455 0 5.89351 0.563004 4.30206 1.61782C2.71061 2.67263 1.47022 4.17187 0.737756 5.92596C0.00529065 7.68005 -0.186354 9.61021 0.187053 11.4723C0.560461 13.3345 1.48215 15.0449 2.83557 16.3875C4.18899 17.73 5.91335 18.6443 7.7906 19.0147C9.66784 19.3851 11.6137 19.195 13.382 18.4684C15.1503 17.7418 16.6617 16.5114 17.7251 14.9328C18.7885 13.3541 19.3561 11.4982 19.3561 9.59956C19.3561 8.33893 19.1057 7.09064 18.6194 5.92596C18.1331 4.76129 17.4202 3.70305 16.5216 2.81164C15.623 1.92024 14.5561 1.21314 13.382 0.730721C12.2079 0.248298 10.9494 0 9.67858 0ZM16.3895 9.85432H12.5976V9.86355L15.7512 12.9917L14.2428 14.487L11.562 11.8278L11.5545 11.8342V16.2574H9.42361V12.496H9.41338L6.26076 15.6233L4.75237 14.128L7.43322 11.4696C7.43156 11.4668 7.42935 11.4642 7.42671 11.4622H2.96762V9.34665H6.75859C6.75859 9.34665 6.75859 9.34111 6.75859 9.33742L3.6041 6.20925L5.11156 4.71394L7.79333 7.3732L7.79985 7.36674V2.94356H9.93261V6.70492H9.94099L13.0955 3.57768L14.6029 5.073L11.9221 7.73134L11.9277 7.73872H16.3877L16.3895 9.85432Z" fill="#F16253"/>
<path d="M11.9297 7.58758L11.9241 7.58112C11.4268 6.99258 10.7149 6.62322 9.94392 6.55378H9.93461C9.84994 6.5464 9.76526 6.54178 9.67872 6.54178C8.99264 6.54114 8.32821 6.78 7.80185 7.21652L7.79533 7.22206C7.20202 7.71532 6.82966 8.42151 6.75966 9.18627V9.1955C6.75221 9.2795 6.74756 9.3635 6.74756 9.44934C6.74691 10.1299 6.98771 10.789 7.42777 11.3111L7.43336 11.3176C7.93063 11.9061 8.64254 12.2755 9.41352 12.3449H9.42282C9.5075 12.3523 9.59218 12.3569 9.67872 12.3569C10.3648 12.3575 11.0292 12.1187 11.5556 11.6822L11.5621 11.6766C12.1554 11.1834 12.5278 10.4772 12.5978 9.7124V9.70317C12.6052 9.61918 12.6099 9.53518 12.6099 9.44934C12.6105 8.76878 12.3697 8.1097 11.9297 7.58758Z" fill="#F16253"/>
<path d="M24.3071 0L24.3071 19.3916" stroke="#696F79" stroke-opacity="0.24" stroke-width="0.412588"/>
<path d="M37.2235 8.58884L35.466 8.25118C34.7733 8.12131 34.2712 8.01741 33.9421 7.92218C33.6218 7.8356 33.414 7.74036 33.3274 7.64512C33.2409 7.54988 33.1976 7.42001 33.1976 7.25551C33.1976 6.95248 33.3447 6.74469 33.6478 6.64079C33.9421 6.5369 34.4703 6.48495 35.2235 6.48495C36.7646 6.48495 38.1932 6.69274 39.4919 7.10832L39.5612 7.03906L39.6131 4.12132C39.0504 3.94816 38.3491 3.79232 37.5006 3.67111C36.6521 3.54989 35.6824 3.48929 34.5655 3.48929C32.7127 3.48929 31.3707 3.74903 30.5222 4.25985C29.6824 4.78799 29.2582 5.74902 29.2582 7.16893C29.2582 8.21655 29.5266 8.99576 30.0634 9.5239C30.6002 10.0434 31.4833 10.4243 32.7041 10.6668L34.6088 11.0304C35.2062 11.1429 35.6045 11.2295 35.8036 11.2988C36.0027 11.3594 36.1066 11.5326 36.1066 11.8096C36.1066 12.0001 36.046 12.1559 35.9162 12.2685C35.7863 12.381 35.5352 12.459 35.1716 12.5109C34.7993 12.5629 34.2452 12.5802 33.5092 12.5802C31.9768 12.5802 30.5915 12.407 29.3361 12.052L29.2582 12.0867V15.0564C29.9681 15.2035 30.7647 15.3248 31.6564 15.4286C32.5482 15.5325 33.5266 15.5845 34.5915 15.5845C35.9941 15.5845 37.085 15.4719 37.8815 15.2468C38.6781 15.0217 39.2408 14.6408 39.5785 14.104C39.9162 13.5672 40.0893 12.8399 40.0893 11.9222C40.0893 10.8745 39.8555 10.1126 39.388 9.6278C38.9205 9.14295 38.2019 8.79663 37.2235 8.58884Z" fill="black"/>
<path d="M49.6907 10.3032C49.6734 10.9439 49.5349 11.4028 49.2665 11.6625C48.9981 11.9309 48.4873 12.0608 47.734 12.0608C46.9462 12.0608 46.4267 11.9136 46.1669 11.6105C45.9072 11.3162 45.7773 10.8053 45.7773 10.0781L45.7514 3.61057H41.8986V11.0131C41.8986 12.4763 42.2102 13.6019 42.8423 14.3898C43.4657 15.1776 44.5219 15.5759 46.0024 15.5759C46.9202 15.5759 47.6994 15.4374 48.3401 15.1517C48.9808 14.8746 49.4137 14.4936 49.6215 14.0261H49.6907L49.8812 15.3508H53.5522V3.61922H49.6907V10.3032Z" fill="black"/>
<path d="M78.2797 3.61923H74.1326C73.6477 4.90927 73.2235 6.19065 72.8425 7.48069C72.4616 8.77073 72.1585 10.0781 71.9161 11.4114H71.8642C71.6217 10.0608 71.3014 8.74476 70.9118 7.45472C70.5135 6.16468 70.0979 4.89196 69.6477 3.61923H65.3274V3.67118L69.9854 15.3941L68.1239 19.8097V19.8616H72.0806L78.2797 3.69715V3.61923Z" fill="black"/>
<path d="M91.1805 15.3419L86.687 3.59303H85.1459H82.5398H80.9987L76.5052 15.3419H80.661L83.8472 7.00428L87.0333 15.3419H91.1805Z" fill="black"/>
<path d="M60.5739 4.08669C60.0285 4.48496 59.6822 5.12565 59.535 6.02608H59.4657L59.154 3.6105H56.0112V15.3594H59.8726L59.9246 11.117C59.9246 10.0261 60.0544 9.1949 60.3228 8.64079C60.5912 8.08668 60.9549 7.71438 61.4311 7.51525C61.8813 7.33343 62.3921 7.23819 62.9462 7.22954H64.9462V3.48929H62.9462C61.8986 3.5066 61.1107 3.70574 60.5739 4.08669Z" fill="black"/>
<path d="M92.9972 5.5844C91.3262 5.5844 89.9755 4.23375 89.9755 2.56276C89.9755 1.48052 90.5469 0.536795 91.3954 0C89.9409 0.329003 88.8586 1.6277 88.8586 3.17748C88.8586 4.97834 90.3132 6.43288 92.114 6.43288C93.2656 6.43288 94.2785 5.83548 94.8586 4.93505C94.3478 5.34198 93.7071 5.5844 92.9972 5.5844Z" fill="#F16522"/>
</svg>
